<svg xmlns="http://www.w3.org/2000/svg" viewBox="0 0 692.14 294.7"><defs><style>.cls-1,.cls-2{fill:none;stroke:#000;stroke-miterlimit:10;}.cls-1{stroke-width:18px;}.cls-2{stroke-width:15px;}</style></defs><g id="Calque_2" data-name="Calque 2"><g id="Calque_1-2" data-name="Calque 1"><path class="cls-1" d="M207,40.5H27s-18,0-18,27,18,27,18,27H54c27,0,27,18,27,18v108s0,18,27,18,27-18,27-18v-90"/><circle cx="135" cy="130.5" r="9"/><circle cx="207" cy="40.5" r="9"/><polyline class="cls-2" points="153 76.5 180 40.5 153 4.5"/><path d="M159.51,164.85c0-19.6,0-33.52-.25-42.46h13.42c.25,3.64.54,9.66.54,22.83,5.52-15.37,17.89-24.43,33-24.64V135.7c-21.8,1.13-32.83,17.41-32.83,40v71H159.51Z"/><path d="M230,186.37c0,27.62,5,50.32,26.19,50.32,21.48,0,24.24-20.88,24.95-24.5H295c-.28,3-4,36.83-38.86,36.83C220.87,249,216,215.58,216,184.83c0-39.33,12.91-64.46,41.25-64.46,31.43,0,38.74,26.89,38.74,57.43,0,1.62,0,5.14-.28,8.57Zm52-11.57c0-24.9-5.73-42.13-25-42.13-25.12,0-26.31,33.78-26.73,42.13Z"/><path d="M320.15,160.77c0-25.41-.2-32.91-.24-38.38h13.46c.29,3,.57,7.82.57,17.58,4.33-10.78,13.24-19.64,30.21-19.64,17.15,0,32,9.28,32,37.85v88.57H382.12V160.61c0-16.26-5.92-27.58-21-27.58-19,0-26.87,12.87-26.87,40.87v72.85H320.15Z"/><path d="M501.43,70.66V215.82c0,11,0,23.52.25,30.93H488.22c-.29-3.21-.58-12.08-.58-18-3.91,11.56-12,20.27-29.83,20.27-25.74,0-37-21.4-37-65.81,0-40.3,15.47-62.8,40.52-62.8,17.08,0,23.34,7.6,26.22,14.17V70.66ZM435.19,183.25c0,38.55,9.26,52.9,25.69,52.9,21,0,26.84-18.34,26.84-53.48,0-39.13-6.09-49.64-25.4-49.64C446.39,133,435.19,147.62,435.19,183.25Z"/><path d="M536.66,122.39c15.05,56.61,26,95.11,27.67,107.82h.25c2.34-13,14.61-58,27.7-107.82H607L570.36,253.27c-9.87,35.55-17.93,41.43-35.73,41.43a37.91,37.91,0,0,1-8-.78V281.09a38.37,38.37,0,0,0,7.94.7c13.78,0,17.32-10.13,23-32.1l-36.11-127.3Z"/><path d="M631.25,211.61c1,15.13,9.1,25.39,24.24,25.39s22.44-9.43,22.44-22.07c0-14.38-7.61-20.74-24.51-27.42-24.3-9.5-31.92-18.3-31.92-35.42,0-16.51,10.09-31.76,33.84-31.76,25.92,0,33.87,17.54,34.08,34.14H675.58c-.42-6.48-2.12-22.16-20.78-22.16-13.35,0-19.17,8.18-19.17,19.17,0,10.78,4.28,16.11,22.43,23.2,23.11,9.1,34.08,17.44,34.08,39.2,0,22-13.79,35.1-37.47,35.1-24.16,0-36.55-14.63-37.38-37.37Z"/></g></g></svg>